<mxfile host="app.diagrams.net" agent="Mozilla/5.0 (Windows NT 10.0; Win64; x64) AppleWebKit/537.36 (KHTML, like Gecko) Chrome/137.0.0.0 Safari/537.36" version="27.0.6">
  <diagram name="Page-1" id="SQc8vw-zwvbMmY3Mgi2k">
    <mxGraphModel dx="1895" dy="958" grid="1" gridSize="10" guides="1" tooltips="1" connect="1" arrows="1" fold="1" page="1" pageScale="1" pageWidth="850" pageHeight="1100" math="0" shadow="0">
      <root>
        <mxCell id="0" />
        <mxCell id="1" parent="0" />
        <mxCell id="tjJZk26gFueVfHyeQ9Kh-32" style="edgeStyle=orthogonalEdgeStyle;rounded=0;orthogonalLoop=1;jettySize=auto;html=1;entryX=0.5;entryY=0;entryDx=0;entryDy=0;" parent="1" source="tjJZk26gFueVfHyeQ9Kh-1" target="tjJZk26gFueVfHyeQ9Kh-45" edge="1">
          <mxGeometry relative="1" as="geometry" />
        </mxCell>
        <mxCell id="tjJZk26gFueVfHyeQ9Kh-1" value="" style="rounded=1;whiteSpace=wrap;html=1;" parent="1" vertex="1">
          <mxGeometry x="315" y="90" width="220" height="60" as="geometry" />
        </mxCell>
        <mxCell id="tjJZk26gFueVfHyeQ9Kh-2" value="&lt;font style=&quot;font-size: 14px;&quot;&gt;API Gateway&lt;/font&gt;" style="text;html=1;align=center;verticalAlign=middle;whiteSpace=wrap;rounded=0;" parent="1" vertex="1">
          <mxGeometry x="370" y="105" width="120" height="30" as="geometry" />
        </mxCell>
        <mxCell id="tjJZk26gFueVfHyeQ9Kh-37" style="edgeStyle=orthogonalEdgeStyle;rounded=0;orthogonalLoop=1;jettySize=auto;html=1;" parent="1" source="tjJZk26gFueVfHyeQ9Kh-3" target="tjJZk26gFueVfHyeQ9Kh-17" edge="1">
          <mxGeometry relative="1" as="geometry" />
        </mxCell>
        <mxCell id="tjJZk26gFueVfHyeQ9Kh-3" value="" style="rounded=1;whiteSpace=wrap;html=1;" parent="1" vertex="1">
          <mxGeometry x="60" y="240" width="220" height="110" as="geometry" />
        </mxCell>
        <mxCell id="tjJZk26gFueVfHyeQ9Kh-4" value="&lt;font style=&quot;font-size: 14px;&quot;&gt;Spendings Microservice&lt;/font&gt;" style="text;html=1;align=center;verticalAlign=middle;whiteSpace=wrap;rounded=0;" parent="1" vertex="1">
          <mxGeometry x="90" y="260" width="160" height="30" as="geometry" />
        </mxCell>
        <mxCell id="tjJZk26gFueVfHyeQ9Kh-5" value="[SpringBoot]" style="text;html=1;align=center;verticalAlign=middle;whiteSpace=wrap;rounded=0;" parent="1" vertex="1">
          <mxGeometry x="140" y="280" width="60" height="30" as="geometry" />
        </mxCell>
        <mxCell id="tjJZk26gFueVfHyeQ9Kh-38" style="edgeStyle=orthogonalEdgeStyle;rounded=0;orthogonalLoop=1;jettySize=auto;html=1;" parent="1" source="tjJZk26gFueVfHyeQ9Kh-6" target="tjJZk26gFueVfHyeQ9Kh-21" edge="1">
          <mxGeometry relative="1" as="geometry" />
        </mxCell>
        <mxCell id="tjJZk26gFueVfHyeQ9Kh-6" value="" style="rounded=1;whiteSpace=wrap;html=1;" parent="1" vertex="1">
          <mxGeometry x="315" y="240" width="220" height="110" as="geometry" />
        </mxCell>
        <mxCell id="tjJZk26gFueVfHyeQ9Kh-7" value="&lt;font style=&quot;font-size: 14px;&quot;&gt;Budgets Microservice&lt;/font&gt;" style="text;html=1;align=center;verticalAlign=middle;whiteSpace=wrap;rounded=0;" parent="1" vertex="1">
          <mxGeometry x="345" y="260" width="160" height="30" as="geometry" />
        </mxCell>
        <mxCell id="tjJZk26gFueVfHyeQ9Kh-8" value="[SpringBoot]" style="text;html=1;align=center;verticalAlign=middle;whiteSpace=wrap;rounded=0;" parent="1" vertex="1">
          <mxGeometry x="390" y="280" width="60" height="30" as="geometry" />
        </mxCell>
        <mxCell id="tjJZk26gFueVfHyeQ9Kh-9" value="" style="rounded=1;whiteSpace=wrap;html=1;" parent="1" vertex="1">
          <mxGeometry x="570" y="240" width="220" height="110" as="geometry" />
        </mxCell>
        <mxCell id="tjJZk26gFueVfHyeQ9Kh-10" value="&lt;font style=&quot;font-size: 14px;&quot;&gt;Reports Microservice&lt;/font&gt;" style="text;html=1;align=center;verticalAlign=middle;whiteSpace=wrap;rounded=0;" parent="1" vertex="1">
          <mxGeometry x="600" y="260" width="160" height="30" as="geometry" />
        </mxCell>
        <mxCell id="tjJZk26gFueVfHyeQ9Kh-11" value="[SpringBoot]" style="text;html=1;align=center;verticalAlign=middle;whiteSpace=wrap;rounded=0;" parent="1" vertex="1">
          <mxGeometry x="650" y="280" width="60" height="30" as="geometry" />
        </mxCell>
        <mxCell id="tjJZk26gFueVfHyeQ9Kh-12" value="[Serverless]" style="text;html=1;align=center;verticalAlign=middle;whiteSpace=wrap;rounded=0;" parent="1" vertex="1">
          <mxGeometry x="650" y="300" width="60" height="30" as="geometry" />
        </mxCell>
        <mxCell id="tjJZk26gFueVfHyeQ9Kh-14" value="[Kubernetes]" style="text;html=1;align=center;verticalAlign=middle;whiteSpace=wrap;rounded=0;" parent="1" vertex="1">
          <mxGeometry x="135.5" y="300" width="69" height="30" as="geometry" />
        </mxCell>
        <mxCell id="tjJZk26gFueVfHyeQ9Kh-16" value="[Kubernetes]" style="text;html=1;align=center;verticalAlign=middle;whiteSpace=wrap;rounded=0;" parent="1" vertex="1">
          <mxGeometry x="385.5" y="300" width="69" height="30" as="geometry" />
        </mxCell>
        <mxCell id="tjJZk26gFueVfHyeQ9Kh-17" value="" style="shape=cylinder3;whiteSpace=wrap;html=1;boundedLbl=1;backgroundOutline=1;size=15;" parent="1" vertex="1">
          <mxGeometry x="60" y="410" width="220" height="130" as="geometry" />
        </mxCell>
        <mxCell id="tjJZk26gFueVfHyeQ9Kh-18" value="&lt;font style=&quot;font-size: 14px;&quot;&gt;Spendings_DB&lt;/font&gt;" style="text;html=1;align=center;verticalAlign=middle;whiteSpace=wrap;rounded=0;" parent="1" vertex="1">
          <mxGeometry x="90" y="450" width="160" height="30" as="geometry" />
        </mxCell>
        <mxCell id="tjJZk26gFueVfHyeQ9Kh-19" value="[MySQL]" style="text;html=1;align=center;verticalAlign=middle;whiteSpace=wrap;rounded=0;" parent="1" vertex="1">
          <mxGeometry x="140" y="470" width="60" height="30" as="geometry" />
        </mxCell>
        <mxCell id="tjJZk26gFueVfHyeQ9Kh-20" value="[Docker]" style="text;html=1;align=center;verticalAlign=middle;whiteSpace=wrap;rounded=0;" parent="1" vertex="1">
          <mxGeometry x="140" y="490" width="60" height="30" as="geometry" />
        </mxCell>
        <mxCell id="tjJZk26gFueVfHyeQ9Kh-21" value="" style="shape=cylinder3;whiteSpace=wrap;html=1;boundedLbl=1;backgroundOutline=1;size=15;" parent="1" vertex="1">
          <mxGeometry x="315" y="410" width="220" height="130" as="geometry" />
        </mxCell>
        <mxCell id="tjJZk26gFueVfHyeQ9Kh-22" value="&lt;font style=&quot;font-size: 14px;&quot;&gt;Budgets_DB&lt;/font&gt;" style="text;html=1;align=center;verticalAlign=middle;whiteSpace=wrap;rounded=0;" parent="1" vertex="1">
          <mxGeometry x="345" y="450" width="160" height="30" as="geometry" />
        </mxCell>
        <mxCell id="tjJZk26gFueVfHyeQ9Kh-23" value="[MySQL]" style="text;html=1;align=center;verticalAlign=middle;whiteSpace=wrap;rounded=0;" parent="1" vertex="1">
          <mxGeometry x="395" y="470" width="60" height="30" as="geometry" />
        </mxCell>
        <mxCell id="tjJZk26gFueVfHyeQ9Kh-24" value="[Docker]" style="text;html=1;align=center;verticalAlign=middle;whiteSpace=wrap;rounded=0;" parent="1" vertex="1">
          <mxGeometry x="395" y="490" width="60" height="30" as="geometry" />
        </mxCell>
        <mxCell id="tjJZk26gFueVfHyeQ9Kh-25" value="" style="shape=cylinder3;whiteSpace=wrap;html=1;boundedLbl=1;backgroundOutline=1;size=15;" parent="1" vertex="1">
          <mxGeometry x="570" y="410" width="220" height="130" as="geometry" />
        </mxCell>
        <mxCell id="tjJZk26gFueVfHyeQ9Kh-26" value="&lt;font style=&quot;font-size: 14px;&quot;&gt;Reports_DB&lt;/font&gt;" style="text;html=1;align=center;verticalAlign=middle;whiteSpace=wrap;rounded=0;" parent="1" vertex="1">
          <mxGeometry x="600" y="450" width="160" height="30" as="geometry" />
        </mxCell>
        <mxCell id="tjJZk26gFueVfHyeQ9Kh-27" value="[PostgreSQL]" style="text;html=1;align=center;verticalAlign=middle;whiteSpace=wrap;rounded=0;" parent="1" vertex="1">
          <mxGeometry x="650" y="470" width="60" height="30" as="geometry" />
        </mxCell>
        <mxCell id="tjJZk26gFueVfHyeQ9Kh-28" value="[Cloud]" style="text;html=1;align=center;verticalAlign=middle;whiteSpace=wrap;rounded=0;" parent="1" vertex="1">
          <mxGeometry x="650" y="490" width="60" height="30" as="geometry" />
        </mxCell>
        <mxCell id="tjJZk26gFueVfHyeQ9Kh-29" value="" style="shape=cylinder3;whiteSpace=wrap;html=1;boundedLbl=1;backgroundOutline=1;size=15;rotation=-90;" parent="1" vertex="1">
          <mxGeometry x="390" y="450" width="70" height="380" as="geometry" />
        </mxCell>
        <mxCell id="tjJZk26gFueVfHyeQ9Kh-30" value="&lt;span style=&quot;font-size: 14px;&quot;&gt;Message Bus&lt;/span&gt;" style="text;html=1;align=center;verticalAlign=middle;whiteSpace=wrap;rounded=0;" parent="1" vertex="1">
          <mxGeometry x="345" y="615" width="160" height="30" as="geometry" />
        </mxCell>
        <mxCell id="tjJZk26gFueVfHyeQ9Kh-31" value="[RabbitMQ]" style="text;html=1;align=center;verticalAlign=middle;whiteSpace=wrap;rounded=0;" parent="1" vertex="1">
          <mxGeometry x="395" y="635" width="60" height="30" as="geometry" />
        </mxCell>
        <mxCell id="tjJZk26gFueVfHyeQ9Kh-33" value="" style="endArrow=none;html=1;rounded=0;" parent="1" edge="1">
          <mxGeometry width="50" height="50" relative="1" as="geometry">
            <mxPoint x="170" y="180" as="sourcePoint" />
            <mxPoint x="680" y="180" as="targetPoint" />
          </mxGeometry>
        </mxCell>
        <mxCell id="tjJZk26gFueVfHyeQ9Kh-34" value="" style="endArrow=classic;html=1;rounded=0;" parent="1" edge="1">
          <mxGeometry width="50" height="50" relative="1" as="geometry">
            <mxPoint x="170" y="180" as="sourcePoint" />
            <mxPoint x="170" y="230" as="targetPoint" />
          </mxGeometry>
        </mxCell>
        <mxCell id="tjJZk26gFueVfHyeQ9Kh-35" value="" style="endArrow=classic;html=1;rounded=0;" parent="1" edge="1">
          <mxGeometry width="50" height="50" relative="1" as="geometry">
            <mxPoint x="680" y="180" as="sourcePoint" />
            <mxPoint x="680" y="230" as="targetPoint" />
          </mxGeometry>
        </mxCell>
        <mxCell id="tjJZk26gFueVfHyeQ9Kh-39" style="edgeStyle=orthogonalEdgeStyle;rounded=0;orthogonalLoop=1;jettySize=auto;html=1;entryX=0.5;entryY=0;entryDx=0;entryDy=0;entryPerimeter=0;" parent="1" source="tjJZk26gFueVfHyeQ9Kh-9" target="tjJZk26gFueVfHyeQ9Kh-25" edge="1">
          <mxGeometry relative="1" as="geometry" />
        </mxCell>
        <mxCell id="tjJZk26gFueVfHyeQ9Kh-41" value="" style="endArrow=classic;startArrow=classic;html=1;rounded=0;entryX=0.5;entryY=1;entryDx=0;entryDy=0;entryPerimeter=0;exitX=1;exitY=0.5;exitDx=0;exitDy=0;exitPerimeter=0;" parent="1" source="tjJZk26gFueVfHyeQ9Kh-29" edge="1">
          <mxGeometry width="50" height="50" relative="1" as="geometry">
            <mxPoint x="400" y="620" as="sourcePoint" />
            <mxPoint x="425" y="550" as="targetPoint" />
          </mxGeometry>
        </mxCell>
        <mxCell id="tjJZk26gFueVfHyeQ9Kh-42" value="" style="endArrow=classic;startArrow=classic;html=1;rounded=0;entryX=0.5;entryY=1;entryDx=0;entryDy=0;entryPerimeter=0;exitX=1;exitY=0;exitDx=0;exitDy=277.5;exitPerimeter=0;" parent="1" source="tjJZk26gFueVfHyeQ9Kh-29" edge="1">
          <mxGeometry width="50" height="50" relative="1" as="geometry">
            <mxPoint x="400" y="620" as="sourcePoint" />
            <mxPoint x="660" y="550" as="targetPoint" />
          </mxGeometry>
        </mxCell>
        <mxCell id="tjJZk26gFueVfHyeQ9Kh-43" value="" style="endArrow=classic;startArrow=classic;html=1;rounded=0;entryX=0.5;entryY=1;entryDx=0;entryDy=0;entryPerimeter=0;exitX=1;exitY=0;exitDx=0;exitDy=102.5;exitPerimeter=0;" parent="1" source="tjJZk26gFueVfHyeQ9Kh-29" edge="1">
          <mxGeometry width="50" height="50" relative="1" as="geometry">
            <mxPoint x="80" y="690" as="sourcePoint" />
            <mxPoint x="190" y="550" as="targetPoint" />
          </mxGeometry>
        </mxCell>
        <mxCell id="tjJZk26gFueVfHyeQ9Kh-44" value="" style="swimlane;startSize=0;" parent="1" vertex="1">
          <mxGeometry x="50" y="230" width="240" height="320" as="geometry" />
        </mxCell>
        <mxCell id="tjJZk26gFueVfHyeQ9Kh-45" value="" style="swimlane;startSize=0;" parent="1" vertex="1">
          <mxGeometry x="305" y="230" width="240" height="320" as="geometry" />
        </mxCell>
        <mxCell id="tjJZk26gFueVfHyeQ9Kh-46" value="" style="swimlane;startSize=0;" parent="1" vertex="1">
          <mxGeometry x="560" y="230" width="240" height="320" as="geometry">
            <mxRectangle x="560" y="230" width="50" height="40" as="alternateBounds" />
          </mxGeometry>
        </mxCell>
        <mxCell id="wOH8JA7z7aCKV7onijxd-1" style="edgeStyle=orthogonalEdgeStyle;rounded=0;orthogonalLoop=1;jettySize=auto;html=1;entryX=0.542;entryY=0;entryDx=0;entryDy=0;entryPerimeter=0;" edge="1" parent="1" target="wOH8JA7z7aCKV7onijxd-60">
          <mxGeometry relative="1" as="geometry">
            <mxPoint x="604.5" y="1080" as="sourcePoint" />
            <mxPoint x="726.1799999999998" y="1128.4" as="targetPoint" />
            <Array as="points">
              <mxPoint x="960" y="1080" />
            </Array>
          </mxGeometry>
        </mxCell>
        <mxCell id="wOH8JA7z7aCKV7onijxd-55" style="edgeStyle=orthogonalEdgeStyle;rounded=0;orthogonalLoop=1;jettySize=auto;html=1;exitX=0.5;exitY=1;exitDx=0;exitDy=0;" edge="1" parent="1" source="wOH8JA7z7aCKV7onijxd-2">
          <mxGeometry relative="1" as="geometry">
            <mxPoint x="569.5714285714287" y="1080" as="targetPoint" />
          </mxGeometry>
        </mxCell>
        <mxCell id="wOH8JA7z7aCKV7onijxd-2" value="" style="rounded=1;whiteSpace=wrap;html=1;" vertex="1" parent="1">
          <mxGeometry x="460" y="990" width="220" height="60" as="geometry" />
        </mxCell>
        <mxCell id="wOH8JA7z7aCKV7onijxd-3" value="&lt;font style=&quot;font-size: 14px;&quot;&gt;API Gateway&lt;/font&gt;" style="text;html=1;align=center;verticalAlign=middle;whiteSpace=wrap;rounded=0;" vertex="1" parent="1">
          <mxGeometry x="515" y="1005" width="120" height="30" as="geometry" />
        </mxCell>
        <mxCell id="wOH8JA7z7aCKV7onijxd-4" style="edgeStyle=orthogonalEdgeStyle;rounded=0;orthogonalLoop=1;jettySize=auto;html=1;" edge="1" parent="1" source="wOH8JA7z7aCKV7onijxd-5" target="wOH8JA7z7aCKV7onijxd-18">
          <mxGeometry relative="1" as="geometry" />
        </mxCell>
        <mxCell id="wOH8JA7z7aCKV7onijxd-5" value="" style="rounded=1;whiteSpace=wrap;html=1;" vertex="1" parent="1">
          <mxGeometry x="80" y="1140" width="220" height="110" as="geometry" />
        </mxCell>
        <mxCell id="wOH8JA7z7aCKV7onijxd-6" value="&lt;font style=&quot;font-size: 14px;&quot;&gt;Spendings Microservice&lt;/font&gt;" style="text;html=1;align=center;verticalAlign=middle;whiteSpace=wrap;rounded=0;" vertex="1" parent="1">
          <mxGeometry x="110" y="1160" width="160" height="30" as="geometry" />
        </mxCell>
        <mxCell id="wOH8JA7z7aCKV7onijxd-7" value="[SpringBoot]" style="text;html=1;align=center;verticalAlign=middle;whiteSpace=wrap;rounded=0;" vertex="1" parent="1">
          <mxGeometry x="160" y="1180" width="60" height="30" as="geometry" />
        </mxCell>
        <mxCell id="wOH8JA7z7aCKV7onijxd-8" style="edgeStyle=orthogonalEdgeStyle;rounded=0;orthogonalLoop=1;jettySize=auto;html=1;" edge="1" parent="1" source="wOH8JA7z7aCKV7onijxd-9" target="wOH8JA7z7aCKV7onijxd-22">
          <mxGeometry relative="1" as="geometry" />
        </mxCell>
        <mxCell id="wOH8JA7z7aCKV7onijxd-16" value="[AKS]" style="text;html=1;align=center;verticalAlign=middle;whiteSpace=wrap;rounded=0;" vertex="1" parent="1">
          <mxGeometry x="155.5" y="1200" width="69" height="30" as="geometry" />
        </mxCell>
        <mxCell id="wOH8JA7z7aCKV7onijxd-18" value="" style="shape=cylinder3;whiteSpace=wrap;html=1;boundedLbl=1;backgroundOutline=1;size=15;" vertex="1" parent="1">
          <mxGeometry x="80" y="1310" width="220" height="130" as="geometry" />
        </mxCell>
        <mxCell id="wOH8JA7z7aCKV7onijxd-19" value="&lt;font style=&quot;font-size: 14px;&quot;&gt;Spendings_DB&lt;/font&gt;" style="text;html=1;align=center;verticalAlign=middle;whiteSpace=wrap;rounded=0;" vertex="1" parent="1">
          <mxGeometry x="110" y="1350" width="160" height="30" as="geometry" />
        </mxCell>
        <mxCell id="wOH8JA7z7aCKV7onijxd-20" value="[MySQL]" style="text;html=1;align=center;verticalAlign=middle;whiteSpace=wrap;rounded=0;" vertex="1" parent="1">
          <mxGeometry x="160" y="1370" width="60" height="30" as="geometry" />
        </mxCell>
        <mxCell id="wOH8JA7z7aCKV7onijxd-21" value="[AKS]" style="text;html=1;align=center;verticalAlign=middle;whiteSpace=wrap;rounded=0;" vertex="1" parent="1">
          <mxGeometry x="160" y="1390" width="60" height="30" as="geometry" />
        </mxCell>
        <mxCell id="wOH8JA7z7aCKV7onijxd-22" value="" style="shape=cylinder3;whiteSpace=wrap;html=1;boundedLbl=1;backgroundOutline=1;size=15;" vertex="1" parent="1">
          <mxGeometry x="335" y="1310" width="220" height="130" as="geometry" />
        </mxCell>
        <mxCell id="wOH8JA7z7aCKV7onijxd-23" value="&lt;font style=&quot;font-size: 14px;&quot;&gt;Budgets_DB&lt;/font&gt;" style="text;html=1;align=center;verticalAlign=middle;whiteSpace=wrap;rounded=0;" vertex="1" parent="1">
          <mxGeometry x="365" y="1350" width="160" height="30" as="geometry" />
        </mxCell>
        <mxCell id="wOH8JA7z7aCKV7onijxd-24" value="[MySQL]" style="text;html=1;align=center;verticalAlign=middle;whiteSpace=wrap;rounded=0;" vertex="1" parent="1">
          <mxGeometry x="415" y="1370" width="60" height="30" as="geometry" />
        </mxCell>
        <mxCell id="wOH8JA7z7aCKV7onijxd-25" value="[AKS]" style="text;html=1;align=center;verticalAlign=middle;whiteSpace=wrap;rounded=0;" vertex="1" parent="1">
          <mxGeometry x="415" y="1390" width="60" height="30" as="geometry" />
        </mxCell>
        <mxCell id="wOH8JA7z7aCKV7onijxd-30" value="" style="shape=cylinder3;whiteSpace=wrap;html=1;boundedLbl=1;backgroundOutline=1;size=15;rotation=-90;" vertex="1" parent="1">
          <mxGeometry x="289.5" y="1350" width="70" height="380" as="geometry" />
        </mxCell>
        <mxCell id="wOH8JA7z7aCKV7onijxd-31" value="&lt;span style=&quot;font-size: 14px;&quot;&gt;Message Bus&lt;/span&gt;" style="text;html=1;align=center;verticalAlign=middle;whiteSpace=wrap;rounded=0;" vertex="1" parent="1">
          <mxGeometry x="244.5" y="1515" width="160" height="30" as="geometry" />
        </mxCell>
        <mxCell id="wOH8JA7z7aCKV7onijxd-32" value="[RabbitMQ]" style="text;html=1;align=center;verticalAlign=middle;whiteSpace=wrap;rounded=0;" vertex="1" parent="1">
          <mxGeometry x="294.5" y="1535" width="60" height="30" as="geometry" />
        </mxCell>
        <mxCell id="wOH8JA7z7aCKV7onijxd-33" value="" style="endArrow=none;html=1;rounded=0;" edge="1" parent="1">
          <mxGeometry width="50" height="50" relative="1" as="geometry">
            <mxPoint x="200" y="1080" as="sourcePoint" />
            <mxPoint x="604.5" y="1080" as="targetPoint" />
          </mxGeometry>
        </mxCell>
        <mxCell id="wOH8JA7z7aCKV7onijxd-34" value="" style="endArrow=classic;html=1;rounded=0;" edge="1" parent="1">
          <mxGeometry width="50" height="50" relative="1" as="geometry">
            <mxPoint x="200.5" y="1080" as="sourcePoint" />
            <mxPoint x="200.5" y="1130" as="targetPoint" />
          </mxGeometry>
        </mxCell>
        <mxCell id="wOH8JA7z7aCKV7onijxd-37" value="" style="endArrow=classic;startArrow=classic;html=1;rounded=0;entryX=0.5;entryY=1;entryDx=0;entryDy=0;entryPerimeter=0;exitX=1;exitY=0.5;exitDx=0;exitDy=0;exitPerimeter=0;" edge="1" parent="1" source="wOH8JA7z7aCKV7onijxd-30">
          <mxGeometry width="50" height="50" relative="1" as="geometry">
            <mxPoint x="420" y="1520" as="sourcePoint" />
            <mxPoint x="445" y="1450" as="targetPoint" />
          </mxGeometry>
        </mxCell>
        <mxCell id="wOH8JA7z7aCKV7onijxd-39" value="" style="endArrow=classic;startArrow=classic;html=1;rounded=0;entryX=0.5;entryY=1;entryDx=0;entryDy=0;entryPerimeter=0;exitX=1;exitY=0.5;exitDx=0;exitDy=0;exitPerimeter=0;" edge="1" parent="1" source="wOH8JA7z7aCKV7onijxd-30">
          <mxGeometry width="50" height="50" relative="1" as="geometry">
            <mxPoint x="100" y="1590" as="sourcePoint" />
            <mxPoint x="210" y="1450" as="targetPoint" />
          </mxGeometry>
        </mxCell>
        <mxCell id="wOH8JA7z7aCKV7onijxd-40" value="" style="swimlane;startSize=0;" vertex="1" parent="1">
          <mxGeometry x="70" y="1130" width="240" height="320" as="geometry" />
        </mxCell>
        <mxCell id="wOH8JA7z7aCKV7onijxd-41" value="" style="swimlane;startSize=0;" vertex="1" parent="1">
          <mxGeometry x="325" y="1130" width="485" height="320" as="geometry" />
        </mxCell>
        <mxCell id="wOH8JA7z7aCKV7onijxd-45" value="" style="shape=cylinder3;whiteSpace=wrap;html=1;boundedLbl=1;backgroundOutline=1;size=15;" vertex="1" parent="wOH8JA7z7aCKV7onijxd-41">
          <mxGeometry x="245" y="180" width="220" height="130" as="geometry" />
        </mxCell>
        <mxCell id="wOH8JA7z7aCKV7onijxd-46" value="&lt;font style=&quot;font-size: 14px;&quot;&gt;BudgetCache_DB&lt;/font&gt;" style="text;html=1;align=center;verticalAlign=middle;whiteSpace=wrap;rounded=0;" vertex="1" parent="wOH8JA7z7aCKV7onijxd-41">
          <mxGeometry x="275" y="220" width="160" height="30" as="geometry" />
        </mxCell>
        <mxCell id="wOH8JA7z7aCKV7onijxd-47" value="[Redis]" style="text;html=1;align=center;verticalAlign=middle;whiteSpace=wrap;rounded=0;" vertex="1" parent="wOH8JA7z7aCKV7onijxd-41">
          <mxGeometry x="325" y="240" width="60" height="30" as="geometry" />
        </mxCell>
        <mxCell id="wOH8JA7z7aCKV7onijxd-48" value="[AKS]" style="text;html=1;align=center;verticalAlign=middle;whiteSpace=wrap;rounded=0;" vertex="1" parent="wOH8JA7z7aCKV7onijxd-41">
          <mxGeometry x="325" y="260" width="60" height="30" as="geometry" />
        </mxCell>
        <mxCell id="wOH8JA7z7aCKV7onijxd-9" value="" style="rounded=1;whiteSpace=wrap;html=1;" vertex="1" parent="wOH8JA7z7aCKV7onijxd-41">
          <mxGeometry x="132.5" y="10" width="220" height="110" as="geometry" />
        </mxCell>
        <mxCell id="wOH8JA7z7aCKV7onijxd-10" value="&lt;font style=&quot;font-size: 14px;&quot;&gt;Budgets Microservice&lt;/font&gt;" style="text;html=1;align=center;verticalAlign=middle;whiteSpace=wrap;rounded=0;" vertex="1" parent="wOH8JA7z7aCKV7onijxd-41">
          <mxGeometry x="165.5" y="30" width="160" height="30" as="geometry" />
        </mxCell>
        <mxCell id="wOH8JA7z7aCKV7onijxd-11" value="[SpringBoot]" style="text;html=1;align=center;verticalAlign=middle;whiteSpace=wrap;rounded=0;" vertex="1" parent="wOH8JA7z7aCKV7onijxd-41">
          <mxGeometry x="210.5" y="50" width="60" height="30" as="geometry" />
        </mxCell>
        <mxCell id="wOH8JA7z7aCKV7onijxd-17" value="[AKS]" style="text;html=1;align=center;verticalAlign=middle;whiteSpace=wrap;rounded=0;" vertex="1" parent="wOH8JA7z7aCKV7onijxd-41">
          <mxGeometry x="206" y="70" width="69" height="30" as="geometry" />
        </mxCell>
        <mxCell id="wOH8JA7z7aCKV7onijxd-61" style="edgeStyle=orthogonalEdgeStyle;rounded=0;orthogonalLoop=1;jettySize=auto;html=1;entryX=0.5;entryY=0;entryDx=0;entryDy=0;entryPerimeter=0;" edge="1" parent="wOH8JA7z7aCKV7onijxd-41" source="wOH8JA7z7aCKV7onijxd-9" target="wOH8JA7z7aCKV7onijxd-45">
          <mxGeometry relative="1" as="geometry" />
        </mxCell>
        <mxCell id="wOH8JA7z7aCKV7onijxd-54" style="edgeStyle=orthogonalEdgeStyle;rounded=0;orthogonalLoop=1;jettySize=auto;html=1;entryX=0.5;entryY=0;entryDx=0;entryDy=0;" edge="1" parent="1" source="wOH8JA7z7aCKV7onijxd-50" target="wOH8JA7z7aCKV7onijxd-2">
          <mxGeometry relative="1" as="geometry" />
        </mxCell>
        <mxCell id="wOH8JA7z7aCKV7onijxd-50" value="" style="rounded=1;whiteSpace=wrap;html=1;" vertex="1" parent="1">
          <mxGeometry x="460" y="810" width="220" height="110" as="geometry" />
        </mxCell>
        <mxCell id="wOH8JA7z7aCKV7onijxd-51" value="&lt;font style=&quot;font-size: 14px;&quot;&gt;SpendSense Frontend&lt;/font&gt;" style="text;html=1;align=center;verticalAlign=middle;whiteSpace=wrap;rounded=0;" vertex="1" parent="1">
          <mxGeometry x="490" y="830" width="160" height="30" as="geometry" />
        </mxCell>
        <mxCell id="wOH8JA7z7aCKV7onijxd-52" value="[React]" style="text;html=1;align=center;verticalAlign=middle;whiteSpace=wrap;rounded=0;" vertex="1" parent="1">
          <mxGeometry x="540" y="850" width="60" height="30" as="geometry" />
        </mxCell>
        <mxCell id="wOH8JA7z7aCKV7onijxd-53" value="[AKS]" style="text;html=1;align=center;verticalAlign=middle;whiteSpace=wrap;rounded=0;" vertex="1" parent="1">
          <mxGeometry x="535.5" y="870" width="69" height="30" as="geometry" />
        </mxCell>
        <mxCell id="wOH8JA7z7aCKV7onijxd-63" style="edgeStyle=orthogonalEdgeStyle;rounded=0;orthogonalLoop=1;jettySize=auto;html=1;" edge="1" parent="1" source="wOH8JA7z7aCKV7onijxd-60">
          <mxGeometry relative="1" as="geometry">
            <mxPoint x="950" y="1550" as="targetPoint" />
          </mxGeometry>
        </mxCell>
        <mxCell id="wOH8JA7z7aCKV7onijxd-60" value="" style="swimlane;startSize=0;" vertex="1" parent="1">
          <mxGeometry x="830" y="1130" width="240" height="130" as="geometry" />
        </mxCell>
        <mxCell id="wOH8JA7z7aCKV7onijxd-56" value="" style="rounded=1;whiteSpace=wrap;html=1;" vertex="1" parent="wOH8JA7z7aCKV7onijxd-60">
          <mxGeometry x="10" y="10" width="220" height="110" as="geometry" />
        </mxCell>
        <mxCell id="wOH8JA7z7aCKV7onijxd-57" value="&lt;font style=&quot;font-size: 14px;&quot;&gt;SAGA Trigger MS&lt;/font&gt;" style="text;html=1;align=center;verticalAlign=middle;whiteSpace=wrap;rounded=0;" vertex="1" parent="wOH8JA7z7aCKV7onijxd-60">
          <mxGeometry x="40" y="30" width="160" height="30" as="geometry" />
        </mxCell>
        <mxCell id="wOH8JA7z7aCKV7onijxd-58" value="[SpringBoot]" style="text;html=1;align=center;verticalAlign=middle;whiteSpace=wrap;rounded=0;" vertex="1" parent="wOH8JA7z7aCKV7onijxd-60">
          <mxGeometry x="90" y="50" width="60" height="30" as="geometry" />
        </mxCell>
        <mxCell id="wOH8JA7z7aCKV7onijxd-59" value="[AKS]" style="text;html=1;align=center;verticalAlign=middle;whiteSpace=wrap;rounded=0;" vertex="1" parent="wOH8JA7z7aCKV7onijxd-60">
          <mxGeometry x="85.5" y="70" width="69" height="30" as="geometry" />
        </mxCell>
        <mxCell id="wOH8JA7z7aCKV7onijxd-62" style="edgeStyle=orthogonalEdgeStyle;rounded=0;orthogonalLoop=1;jettySize=auto;html=1;" edge="1" parent="1">
          <mxGeometry relative="1" as="geometry">
            <mxPoint x="570" y="1130" as="targetPoint" />
            <mxPoint x="570" y="1080" as="sourcePoint" />
          </mxGeometry>
        </mxCell>
      </root>
    </mxGraphModel>
  </diagram>
</mxfile>
